# xmcd
#
# Track frame offsets:
#   180
#   19499
#   34736
#   52089
#   74102
#   97637
#   114424
#   137434
#   154651
#   172857
#   185828
#   199261
#
# Disc length: 2873 seconds
#
# Revision: 0
# Processed by: cddbd v1.5.2PL0 Copyright (c) Steve Scherf et al.
# Submitted via: GXTranscoder 2.0.1939
#
DISCID=a50b370c
DTITLE=Berens, Roland - Wilde Zeiten
DYEAR=1900
DGENRE=Blues
TTITLE0=Sogenannte Freunde
TTITLE1=Blues nach Mitternacht
TTITLE2=Moral dieser Zeit
TTITLE3=Wirf fort Dein Schwert I
TTITLE4=Ihre ganz besondere Art
TTITLE5=Doppel M
TTITLE6=Das müssen wohl Gefühle sein
TTITLE7=Noch bin ich Mensch
TTITLE8=Es ist alles vorbei, Baby Blue
TTITLE9=Frühling der Seele
TTITLE10=Wilde Zeiten
TTITLE11=Wirf fort Dein Schwert II
EXTD=
EXTT0=
EXTT1=
EXTT2=
EXTT3=
EXTT4=
EXTT5=
EXTT6=
EXTT7=
EXTT8=
EXTT9=
EXTT10=
EXTT11=
PLAYORDER=
